<svg xmlns="http://www.w3.org/2000/svg" viewBox="0 0 600 480" role="img" aria-label="Applixus hakkında görseli">
  <defs>
    <linearGradient id="ab-bg" x1="0" y1="0" x2="1" y2="1">
      <stop offset="0" stop-color="#1e1b4b"/>
      <stop offset="1" stop-color="#312e81"/>
    </linearGradient>
    <linearGradient id="ab-acc" x1="0" y1="0" x2="1" y2="1">
      <stop offset="0" stop-color="#a855f7"/>
      <stop offset="1" stop-color="#3b82f6"/>
    </linearGradient>
    <radialGradient id="ab-glow" cx="0.5" cy="0.45" r="0.6">
      <stop offset="0" stop-color="#6366f1" stop-opacity="0.5"/>
      <stop offset="1" stop-color="#6366f1" stop-opacity="0"/>
    </radialGradient>
  </defs>
  <rect width="600" height="480" rx="24" fill="url(#ab-bg)"/>
  <rect width="600" height="480" rx="24" fill="url(#ab-glow)"/>
  <g transform="translate(150,120)">
    <rect x="0" y="0" width="300" height="220" rx="20" fill="#0b1020" stroke="url(#ab-acc)" stroke-width="2"/>
    <rect x="24" y="26" width="140" height="16" rx="8" fill="url(#ab-acc)"/>
    <rect x="24" y="54" width="252" height="12" rx="6" fill="#2a2f52"/>
    <rect x="24" y="74" width="200" height="12" rx="6" fill="#232846"/>
    <circle cx="48" cy="130" r="26" fill="#1d2240" stroke="#3b3f5e" stroke-width="2"/>
    <path d="M38 130 l8 8 l12 -14" stroke="url(#ab-acc)" stroke-width="3" fill="none" stroke-linecap="round" stroke-linejoin="round"/>
    <rect x="90" y="116" width="186" height="12" rx="6" fill="#2a2f52"/>
    <rect x="90" y="136" width="150" height="12" rx="6" fill="#232846"/>
    <circle cx="48" cy="186" r="26" fill="#1d2240" stroke="#3b3f5e" stroke-width="2"/>
    <path d="M38 186 l8 8 l12 -14" stroke="url(#ab-acc)" stroke-width="3" fill="none" stroke-linecap="round" stroke-linejoin="round"/>
    <rect x="90" y="172" width="186" height="12" rx="6" fill="#2a2f52"/>
    <rect x="90" y="192" width="120" height="12" rx="6" fill="#232846"/>
  </g>
  <g font-family="Inter, -apple-system, Segoe UI, Roboto, sans-serif" font-size="12" font-weight="600">
    <g transform="translate(60,80)"><rect width="120" height="34" rx="17" fill="#ffffff" opacity="0.08" stroke="#ffffff" stroke-opacity="0.15"/><circle cx="18" cy="17" r="7" fill="url(#ab-acc)"/><text x="34" y="22" fill="#e2e8f5">2023'ten Beri</text></g>
    <g transform="translate(430,360)"><rect width="120" height="34" rx="17" fill="#ffffff" opacity="0.08" stroke="#ffffff" stroke-opacity="0.15"/><circle cx="18" cy="17" r="7" fill="url(#ab-acc)"/><text x="34" y="22" fill="#e2e8f5">İnovasyon</text></g>
  </g>
</svg>
